<mxfile host="Electron" modified="2023-06-04T06:46:12.083Z" agent="Mozilla/5.0 (Windows NT 10.0; Win64; x64) AppleWebKit/537.36 (KHTML, like Gecko) draw.io/21.2.8 Chrome/112.0.5615.165 Electron/24.2.0 Safari/537.36" etag="z2vggvDuC4C9Xoa1-r64" version="21.2.8" type="device">
  <diagram name="第 1 页" id="lyBMwj2S9ce015SFmobW">
    <mxGraphModel dx="819" dy="482" grid="1" gridSize="10" guides="1" tooltips="1" connect="1" arrows="1" fold="1" page="1" pageScale="1" pageWidth="827" pageHeight="1169" math="0" shadow="0">
      <root>
        <mxCell id="0" />
        <mxCell id="1" parent="0" />
        <mxCell id="5b-Zpfnu2wC6w1r81WSX-1" value="SenNode" style="rounded=0;whiteSpace=wrap;html=1;" vertex="1" parent="1">
          <mxGeometry x="390" y="260" width="80" height="40" as="geometry" />
        </mxCell>
        <mxCell id="5b-Zpfnu2wC6w1r81WSX-2" value="LeafNode" style="rounded=0;whiteSpace=wrap;html=1;" vertex="1" parent="1">
          <mxGeometry x="500" y="400" width="80" height="40" as="geometry" />
        </mxCell>
        <mxCell id="5b-Zpfnu2wC6w1r81WSX-3" value="CtlNode" style="rounded=0;whiteSpace=wrap;html=1;" vertex="1" parent="1">
          <mxGeometry x="350" y="450" width="80" height="40" as="geometry" />
        </mxCell>
        <mxCell id="5b-Zpfnu2wC6w1r81WSX-4" value="" style="endArrow=classic;html=1;rounded=0;entryX=0.5;entryY=0;entryDx=0;entryDy=0;exitX=0.75;exitY=1;exitDx=0;exitDy=0;" edge="1" parent="1" source="5b-Zpfnu2wC6w1r81WSX-1" target="5b-Zpfnu2wC6w1r81WSX-2">
          <mxGeometry width="50" height="50" relative="1" as="geometry">
            <mxPoint x="480" y="420" as="sourcePoint" />
            <mxPoint x="530" y="370" as="targetPoint" />
          </mxGeometry>
        </mxCell>
        <mxCell id="5b-Zpfnu2wC6w1r81WSX-5" value="" style="endArrow=classic;html=1;rounded=0;entryX=0.5;entryY=0;entryDx=0;entryDy=0;exitX=0.25;exitY=1;exitDx=0;exitDy=0;" edge="1" parent="1" source="5b-Zpfnu2wC6w1r81WSX-1" target="5b-Zpfnu2wC6w1r81WSX-3">
          <mxGeometry width="50" height="50" relative="1" as="geometry">
            <mxPoint x="510" y="370" as="sourcePoint" />
            <mxPoint x="550" y="410" as="targetPoint" />
          </mxGeometry>
        </mxCell>
        <mxCell id="5b-Zpfnu2wC6w1r81WSX-7" value="OperNode" style="rounded=0;whiteSpace=wrap;html=1;" vertex="1" parent="1">
          <mxGeometry x="250" y="450" width="80" height="40" as="geometry" />
        </mxCell>
        <mxCell id="5b-Zpfnu2wC6w1r81WSX-8" value="FuncNode" style="rounded=0;whiteSpace=wrap;html=1;" vertex="1" parent="1">
          <mxGeometry x="150" y="450" width="80" height="40" as="geometry" />
        </mxCell>
        <mxCell id="5b-Zpfnu2wC6w1r81WSX-9" value="" style="endArrow=classic;html=1;rounded=0;entryX=0.52;entryY=-0.08;entryDx=0;entryDy=0;exitX=0.25;exitY=1;exitDx=0;exitDy=0;entryPerimeter=0;" edge="1" parent="1" source="5b-Zpfnu2wC6w1r81WSX-1" target="5b-Zpfnu2wC6w1r81WSX-7">
          <mxGeometry width="50" height="50" relative="1" as="geometry">
            <mxPoint x="470" y="370" as="sourcePoint" />
            <mxPoint x="400" y="460" as="targetPoint" />
          </mxGeometry>
        </mxCell>
        <mxCell id="5b-Zpfnu2wC6w1r81WSX-10" value="" style="endArrow=classic;html=1;rounded=0;entryX=0.5;entryY=0;entryDx=0;entryDy=0;" edge="1" parent="1" target="5b-Zpfnu2wC6w1r81WSX-8">
          <mxGeometry width="50" height="50" relative="1" as="geometry">
            <mxPoint x="410" y="300" as="sourcePoint" />
            <mxPoint x="410" y="470" as="targetPoint" />
          </mxGeometry>
        </mxCell>
        <mxCell id="5b-Zpfnu2wC6w1r81WSX-12" value="is_leaf = False" style="text;html=1;strokeColor=none;fillColor=none;align=center;verticalAlign=middle;whiteSpace=wrap;rounded=0;" vertex="1" parent="1">
          <mxGeometry x="290" y="300" width="90" height="30" as="geometry" />
        </mxCell>
        <mxCell id="5b-Zpfnu2wC6w1r81WSX-13" value="is_leaf = True" style="text;html=1;strokeColor=none;fillColor=none;align=center;verticalAlign=middle;whiteSpace=wrap;rounded=0;" vertex="1" parent="1">
          <mxGeometry x="460" y="300" width="90" height="30" as="geometry" />
        </mxCell>
        <mxCell id="5b-Zpfnu2wC6w1r81WSX-14" value="FuncName" style="rounded=0;whiteSpace=wrap;html=1;" vertex="1" parent="1">
          <mxGeometry x="420" y="520" width="80" height="40" as="geometry" />
        </mxCell>
        <mxCell id="5b-Zpfnu2wC6w1r81WSX-15" value="VarName" style="rounded=0;whiteSpace=wrap;html=1;" vertex="1" parent="1">
          <mxGeometry x="590" y="520" width="80" height="40" as="geometry" />
        </mxCell>
        <mxCell id="5b-Zpfnu2wC6w1r81WSX-16" value="Const" style="rounded=0;whiteSpace=wrap;html=1;" vertex="1" parent="1">
          <mxGeometry x="680" y="520" width="80" height="40" as="geometry" />
        </mxCell>
      </root>
    </mxGraphModel>
  </diagram>
</mxfile>
